<svg id="svg" version="1.1" xmlns="http://www.w3.org/2000/svg" xmlns:xlink="http://www.w3.org/1999/xlink" width="400" height="400" viewBox="0, 0, 400,400"><g id="svgg"><path id="path0" d="M0.000 200.000 L 0.000 400.000 200.000 400.000 L 400.000 400.000 400.000 200.000 L 400.000 0.000 200.000 0.000 L 0.000 0.000 0.000 200.000 M89.453 156.195 C 99.805 159.339,108.206 167.577,111.702 178.011 C 113.473 183.298,114.162 182.813,104.888 182.813 L 96.886 182.813 95.678 180.420 C 91.500 172.143,89.045 171.503,61.440 171.492 C 38.519 171.483,39.328 171.605,34.939 167.500 C 31.767 164.532,30.080 161.298,29.785 157.619 L 29.577 155.040 58.050 155.173 C 86.378 155.304,86.538 155.310,89.453 156.195 M157.614 180.422 C 159.469 181.341,161.072 182.318,161.177 182.592 C 161.323 182.971,159.188 187.233,158.347 188.242 C 158.275 188.327,157.152 187.830,155.851 187.136 C 147.522 182.697,138.505 187.529,138.493 196.437 C 138.482 204.655,145.088 209.393,153.177 206.969 L 154.688 206.517 154.688 203.844 L 154.688 201.172 151.563 201.172 L 148.438 201.172 148.438 198.242 L 148.438 195.313 155.273 195.313 L 162.109 195.313 162.109 202.519 L 162.109 209.726 160.840 210.679 C 148.420 219.999,131.602 212.758,130.937 197.803 C 130.276 182.938,144.279 173.814,157.614 180.422 M299.219 182.828 L 299.219 186.359 291.895 186.309 L 284.570 186.260 284.458 189.810 L 284.346 193.359 290.806 193.359 L 297.266 193.359 297.266 196.680 L 297.266 200.000 290.820 200.000 L 284.375 200.000 284.375 203.711 L 284.375 207.422 291.797 207.422 L 299.219 207.422 299.219 210.742 L 299.219 214.063 288.086 214.063 L 276.953 214.063 276.953 196.680 L 276.953 179.297 288.086 179.297 L 299.219 179.297 299.219 182.828 M55.865 186.230 C 55.869 190.317,56.068 193.218,56.457 194.870 C 60.197 210.737,79.414 217.252,90.868 206.538 C 94.025 203.585,94.009 203.517,90.137 203.510 C 84.721 203.500,83.595 202.251,83.594 196.252 C 83.593 190.837,82.387 191.235,99.259 191.095 L 113.281 190.979 113.281 192.071 C 113.269 217.048,85.041 234.914,62.528 224.193 C 48.470 217.499,41.493 205.832,41.110 188.379 L 40.928 180.078 48.394 180.078 L 55.859 180.078 55.865 186.230 M199.597 189.568 C 210.574 193.611,209.783 210.643,198.458 214.083 C 188.530 217.099,179.800 209.367,181.646 199.191 C 183.166 190.809,191.230 186.486,199.597 189.568 M248.262 189.440 C 252.651 191.331,255.653 196.888,254.862 201.660 L 254.619 203.125 246.408 203.125 L 238.197 203.125 238.460 204.175 C 239.534 208.455,244.720 210.213,249.362 207.872 L 251.568 206.759 252.762 208.698 C 254.208 211.049,254.164 211.187,251.440 212.823 C 243.872 217.370,234.572 213.790,231.972 205.330 C 228.794 194.990,238.705 185.323,248.262 189.440 M273.145 188.944 C 273.306 189.035,273.438 190.582,273.438 192.383 L 273.438 195.658 270.713 195.429 L 267.988 195.201 266.416 196.773 L 264.844 198.346 264.844 206.204 L 264.844 214.063 261.133 214.063 L 257.422 214.063 257.422 201.563 L 257.422 189.063 261.125 189.063 L 264.829 189.063 264.597 190.918 L 264.365 192.773 265.612 191.306 C 267.760 188.777,271.023 187.754,273.145 188.944 M339.648 188.876 C 342.204 189.297,345.412 190.979,345.110 191.740 C 344.969 192.094,344.510 193.295,344.088 194.409 L 343.322 196.435 341.927 195.489 C 339.409 193.780,336.371 193.294,334.853 194.358 C 332.754 195.828,334.186 197.549,338.726 199.014 C 345.682 201.257,348.238 205.669,345.204 210.196 C 341.944 215.062,329.967 216.406,326.550 212.290 C 326.154 211.812,327.157 207.819,327.950 206.718 C 327.997 206.654,328.857 207.122,329.862 207.759 C 333.534 210.088,337.474 210.189,338.913 207.992 C 340.141 206.118,338.968 204.962,334.565 203.705 C 328.856 202.076,326.708 199.835,327.038 195.854 C 327.354 192.046,330.035 189.410,334.344 188.672 C 336.126 188.367,336.683 188.388,339.648 188.876 M364.728 189.702 C 368.934 191.695,371.003 195.867,370.756 201.855 L 370.703 203.125 362.458 203.125 L 354.212 203.125 354.467 204.199 C 355.486 208.486,361.209 210.255,365.786 207.698 L 367.524 206.726 368.925 208.836 L 370.326 210.946 367.949 212.482 C 360.027 217.603,350.124 213.786,347.825 204.726 C 345.164 194.242,355.299 185.233,364.728 189.702 M181.250 192.135 L 181.250 195.599 178.601 195.409 C 173.421 195.039,172.578 196.671,172.737 206.764 L 172.852 214.063 169.238 214.063 L 165.625 214.063 165.625 201.563 L 165.625 189.063 169.141 189.063 L 172.656 189.063 172.669 190.723 L 172.681 192.383 173.516 191.263 C 174.877 189.437,176.492 188.675,179.004 188.673 L 181.250 188.672 181.250 192.135 M227.148 189.625 C 230.328 191.165,230.244 190.964,228.936 193.879 C 228.293 195.312,227.709 196.484,227.638 196.484 C 227.567 196.484,226.819 196.133,225.977 195.703 C 221.040 193.186,216.000 196.266,216.024 201.783 C 216.051 207.721,221.630 210.807,226.438 207.544 C 227.201 207.026,227.862 206.655,227.907 206.719 C 227.951 206.783,228.547 207.845,229.230 209.079 L 230.472 211.321 228.877 212.476 C 218.592 219.927,204.427 208.137,209.640 196.465 C 212.508 190.043,221.089 186.691,227.148 189.625 M318.709 189.885 C 323.200 192.129,323.828 194.119,323.828 206.108 L 323.828 214.063 320.747 214.063 L 317.665 214.063 317.399 212.645 L 317.133 211.227 315.891 212.430 C 309.713 218.409,299.199 211.765,302.687 204.085 C 304.508 200.077,311.801 197.795,316.456 199.776 C 317.100 200.050,316.979 198.199,316.238 196.440 C 315.328 194.279,309.799 194.123,306.915 196.177 C 306.310 196.608,305.753 196.897,305.678 196.820 C 305.422 196.557,302.734 192.500,302.734 192.377 C 302.734 192.065,306.742 189.836,308.261 189.305 C 311.352 188.222,315.885 188.474,318.709 189.885 M240.969 194.728 C 240.023 195.242,238.672 197.401,238.672 198.399 C 238.672 198.689,240.318 198.828,243.740 198.828 L 248.809 198.828 248.428 197.825 C 247.713 195.946,247.243 195.321,246.102 194.731 C 244.681 193.996,242.318 193.995,240.969 194.728 M356.901 194.772 C 356.284 195.106,355.471 196.093,355.063 197.002 L 354.332 198.633 357.066 198.748 C 358.569 198.811,360.927 198.811,362.304 198.748 L 364.809 198.633 364.076 196.999 C 362.889 194.353,359.573 193.324,356.901 194.772 M192.383 195.065 C 186.275 197.874,187.940 208.587,194.485 208.592 C 201.916 208.599,202.503 195.723,195.117 194.735 C 194.181 194.609,193.085 194.742,192.383 195.065 M310.059 204.520 C 308.627 205.297,308.504 207.823,309.853 208.767 C 312.386 210.541,316.797 208.359,316.797 205.331 C 316.797 204.018,312.039 203.446,310.059 204.520 " stroke="none" fill="#fbfbfb" fill-rule="evenodd"></path><path id="path1" d="M65.723 171.363 C 66.099 171.461,66.714 171.461,67.090 171.363 C 67.466 171.265,67.158 171.184,66.406 171.184 C 65.654 171.184,65.347 171.265,65.723 171.363 M143.848 179.119 C 136.155 181.191,130.859 188.217,130.859 196.352 C 130.859 211.765,146.747 219.735,160.059 211.001 L 162.109 209.655 162.109 202.484 L 162.109 195.313 155.273 195.313 L 148.438 195.313 148.438 198.267 L 148.438 201.222 151.660 201.136 L 154.883 201.051 154.883 203.743 C 154.883 207.150,154.233 207.593,149.219 207.602 C 141.105 207.618,136.433 200.896,138.865 192.706 C 140.863 185.981,149.621 183.285,156.458 187.291 L 158.163 188.291 159.799 185.536 C 161.692 182.351,161.759 182.506,157.617 180.509 C 153.455 178.502,148.134 177.965,143.848 179.119 M276.953 196.875 L 276.953 214.063 287.891 214.063 L 298.828 214.063 298.828 211.963 C 298.828 210.808,298.929 209.358,299.053 208.740 L 299.278 207.617 291.827 207.731 L 284.375 207.845 284.375 203.923 L 284.375 200.000 290.625 200.000 L 296.875 200.000 296.875 196.680 L 296.875 193.359 290.625 193.359 L 284.375 193.359 284.375 189.648 L 284.375 185.938 291.797 185.938 L 299.219 185.938 299.219 182.813 L 299.219 179.688 288.086 179.688 L 276.953 179.688 276.953 196.875 M175.960 189.400 C 175.306 189.798,174.295 190.690,173.714 191.381 L 172.656 192.638 172.656 190.850 L 172.656 189.063 169.347 189.063 L 166.037 189.063 165.929 201.563 L 165.820 214.063 169.238 214.063 L 172.656 214.063 172.656 206.264 L 172.656 198.465 173.848 197.108 C 175.368 195.376,177.112 194.778,179.246 195.258 L 180.859 195.620 180.859 192.146 L 180.859 188.672 179.004 188.673 C 177.886 188.674,176.676 188.963,175.960 189.400 M190.265 189.290 C 176.751 194.204,179.720 214.635,193.945 214.610 C 211.124 214.580,212.078 189.553,194.930 188.793 C 192.921 188.704,191.446 188.861,190.265 189.290 M217.773 189.468 C 205.256 193.484,206.176 212.048,219.007 214.361 C 222.020 214.904,225.561 214.291,228.020 212.801 C 230.441 211.334,230.405 211.504,228.876 208.796 L 227.674 206.666 226.859 207.425 C 222.691 211.308,216.386 208.244,216.080 202.186 C 215.771 196.073,220.715 192.782,226.017 195.570 L 227.621 196.413 228.809 193.907 L 229.997 191.402 228.838 190.576 C 226.087 188.617,221.771 188.185,217.773 189.468 M239.789 189.261 C 229.073 192.698,229.076 210.291,239.793 213.850 C 244.155 215.299,250.894 214.058,253.270 211.368 C 254.148 210.375,251.771 206.331,250.817 207.194 C 247.552 210.149,241.590 209.482,239.169 205.890 C 237.191 202.954,237.251 202.930,246.387 202.930 L 254.492 202.930 254.606 200.352 C 254.965 192.256,247.611 186.752,239.789 189.261 M268.164 189.305 C 267.520 189.636,266.424 190.552,265.728 191.340 L 264.465 192.773 264.459 190.918 L 264.453 189.063 261.133 189.063 L 257.813 189.063 257.813 201.563 L 257.813 214.063 261.110 214.063 L 264.408 214.063 264.528 206.316 L 264.648 198.570 265.733 197.149 C 267.090 195.372,269.048 194.711,271.387 195.243 L 273.047 195.620 273.047 192.146 L 273.047 188.672 271.191 188.688 C 270.171 188.696,268.809 188.974,268.164 189.305 M308.957 189.206 C 307.124 189.700,303.750 191.493,303.309 192.206 C 303.120 192.511,304.548 195.237,305.736 196.840 C 305.801 196.928,306.170 196.715,306.555 196.367 C 309.548 193.658,315.365 194.050,316.616 197.044 C 317.632 199.476,317.428 200.087,315.723 199.725 C 308.305 198.152,302.765 200.942,302.416 206.427 C 301.943 213.849,310.668 217.342,316.309 211.989 L 317.578 210.784 317.578 212.423 L 317.578 214.063 320.749 214.063 L 323.920 214.063 323.722 205.176 C 323.494 194.934,323.263 193.827,320.871 191.523 C 318.145 188.898,313.470 187.989,308.957 189.206 M332.640 189.229 C 328.490 190.777,326.428 194.247,327.324 198.173 C 327.920 200.784,329.548 201.955,334.977 203.679 C 339.458 205.102,340.567 206.630,338.515 208.558 C 336.618 210.340,332.451 209.900,329.435 207.600 C 328.481 206.872,328.069 206.736,327.942 207.106 C 327.845 207.387,327.407 208.584,326.969 209.766 C 326.531 210.947,326.172 211.968,326.172 212.033 C 326.171 212.493,330.783 214.110,332.981 214.421 C 346.641 216.356,351.441 202.989,338.503 199.043 C 335.177 198.028,333.984 197.181,333.984 195.831 C 333.984 193.507,337.634 193.040,341.188 194.910 C 342.722 195.717,343.445 195.925,343.565 195.593 C 345.288 190.822,345.338 191.163,342.737 189.972 C 339.989 188.714,335.004 188.347,332.640 189.229 M355.805 189.261 C 345.703 192.501,344.871 208.346,354.543 213.286 C 357.521 214.807,363.806 214.725,366.691 213.126 C 370.008 211.288,370.093 211.087,368.583 208.640 C 367.732 207.260,367.191 206.709,366.996 207.025 C 364.627 210.859,355.174 208.777,354.443 204.260 L 354.227 202.930 362.368 202.930 L 370.508 202.930 370.626 200.635 C 371.049 192.452,363.622 186.753,355.805 189.261 M362.500 194.889 C 363.622 195.658,365.022 198.224,364.648 198.828 C 364.337 199.332,354.297 199.266,354.297 198.760 C 354.297 195.074,359.314 192.706,362.500 194.889 M246.674 194.987 C 247.641 195.748,248.828 197.834,248.828 198.771 C 248.828 199.108,239.170 199.302,238.611 198.976 C 238.074 198.664,239.260 195.997,240.338 195.090 C 241.870 193.801,245.099 193.749,246.674 194.987 M197.786 195.542 C 200.354 197.403,201.186 202.185,199.512 205.461 C 195.922 212.487,186.896 207.730,188.683 199.754 C 189.700 195.216,194.361 193.060,197.786 195.542 M316.470 204.532 C 318.047 205.506,315.188 209.298,312.616 209.643 C 309.739 210.029,307.636 207.129,309.302 205.072 C 310.391 203.726,314.648 203.405,316.470 204.532 " stroke="none" fill="#203240" fill-rule="evenodd"></path><path id="path2" d="M29.828 157.483 C 30.366 162.631,34.219 168.013,38.958 170.233 L 41.211 171.289 61.523 171.346 C 83.261 171.407,85.321 171.557,88.968 173.343 C 91.487 174.576,94.639 177.828,95.850 180.442 L 96.751 182.386 104.791 182.388 L 112.832 182.390 112.061 179.574 C 108.913 168.080,100.224 159.357,88.721 156.142 C 85.832 155.335,84.900 155.305,57.657 155.170 L 29.571 155.031 29.828 157.483 M41.016 185.881 C 41.016 207.735,51.939 222.921,70.394 226.723 C 90.080 230.780,111.198 215.195,112.691 195.508 C 112.773 194.434,112.964 193.229,113.117 192.832 C 113.290 192.381,113.190 191.977,112.850 191.759 C 112.071 191.259,85.156 191.336,85.156 191.838 C 85.156 192.056,84.989 192.130,84.785 192.004 C 83.955 191.491,83.495 193.529,83.686 196.878 C 83.881 200.297,84.628 202.620,85.475 202.441 C 85.730 202.388,85.938 202.520,85.938 202.734 C 85.938 202.969,87.500 203.125,89.844 203.125 C 94.435 203.125,94.456 203.164,91.497 206.188 C 86.691 211.101,77.524 213.348,71.289 211.142 C 60.560 207.346,55.877 199.838,55.865 186.412 L 55.859 180.050 48.438 180.095 L 41.016 180.140 41.016 185.881 " stroke="none" fill="#349c74" fill-rule="evenodd"></path><path id="path3" d="M100.900 182.714 C 103.221 182.783,106.913 182.782,109.103 182.713 C 111.294 182.644,109.395 182.587,104.883 182.587 C 100.371 182.588,98.579 182.644,100.900 182.714 M288.574 186.229 C 290.562 186.299,293.813 186.299,295.801 186.229 C 297.788 186.158,296.162 186.100,292.188 186.100 C 288.213 186.100,286.587 186.158,288.574 186.229 M257.596 201.563 C 257.596 208.545,257.649 211.401,257.714 207.910 C 257.779 204.419,257.779 198.706,257.714 195.215 C 257.649 191.724,257.596 194.580,257.596 201.563 M273.186 192.383 C 273.184 194.316,273.250 195.157,273.332 194.250 C 273.414 193.343,273.415 191.761,273.334 190.734 C 273.254 189.707,273.187 190.449,273.186 192.383 M92.846 191.308 C 96.538 191.372,102.690 191.372,106.518 191.308 C 110.345 191.244,107.324 191.192,99.805 191.191 C 92.285 191.191,89.154 191.244,92.846 191.308 M297.000 196.484 C 297.000 197.881,297.071 198.452,297.158 197.754 C 297.244 197.056,297.244 195.913,297.158 195.215 C 297.071 194.517,297.000 195.088,297.000 196.484 M254.778 200.391 C 254.778 201.143,254.859 201.450,254.957 201.074 C 255.055 200.698,255.055 200.083,254.957 199.707 C 254.859 199.331,254.778 199.639,254.778 200.391 M181.349 201.758 C 181.353 202.617,181.433 202.923,181.526 202.437 C 181.620 201.951,181.616 201.248,181.518 200.874 C 181.421 200.501,181.344 200.898,181.349 201.758 M87.695 203.372 C 90.497 203.663,93.751 203.688,93.751 203.418 C 93.750 203.257,92.124 203.153,90.137 203.188 C 88.149 203.222,87.051 203.305,87.695 203.372 M90.995 206.543 L 89.648 208.008 91.113 206.662 C 92.477 205.409,92.758 205.078,92.459 205.078 C 92.394 205.078,91.735 205.737,90.995 206.543 M101.953 216.992 C 101.004 217.959,100.316 218.750,100.423 218.750 C 100.531 218.750,101.395 217.959,102.344 216.992 C 103.293 216.025,103.981 215.234,103.874 215.234 C 103.766 215.234,102.902 216.025,101.953 216.992 " stroke="none" fill="#9cb6b2" fill-rule="evenodd"></path><path id="path4" d="M282.543 179.589 C 285.726 179.655,290.823 179.655,293.872 179.589 C 296.920 179.523,294.316 179.469,288.086 179.469 C 281.855 179.469,279.361 179.523,282.543 179.589 M165.799 201.367 C 165.799 208.242,165.853 211.000,165.917 207.495 C 165.982 203.990,165.982 198.365,165.917 194.995 C 165.852 191.625,165.799 194.492,165.799 201.367 M180.998 192.383 C 180.997 194.316,181.063 195.157,181.145 194.250 C 181.227 193.343,181.228 191.761,181.147 190.734 C 181.066 189.707,180.999 190.449,180.998 192.383 M240.925 199.111 C 241.627 199.198,242.682 199.196,243.269 199.107 C 243.856 199.018,243.281 198.947,241.992 198.949 C 240.703 198.951,240.223 199.024,240.925 199.111 M245.219 199.104 C 245.705 199.198,246.408 199.194,246.782 199.097 C 247.155 198.999,246.758 198.922,245.898 198.927 C 245.039 198.931,244.733 199.011,245.219 199.104 M359.082 199.115 C 360.103 199.196,361.772 199.196,362.793 199.115 C 363.813 199.035,362.979 198.969,360.938 198.969 C 358.896 198.969,358.062 199.035,359.082 199.115 M264.617 206.641 C 264.617 210.830,264.674 212.544,264.744 210.449 C 264.815 208.354,264.815 204.927,264.744 202.832 C 264.674 200.737,264.617 202.451,264.617 206.641 M231.349 201.367 C 231.353 202.227,231.433 202.532,231.526 202.046 C 231.620 201.560,231.616 200.857,231.518 200.484 C 231.421 200.110,231.344 200.508,231.349 201.367 M154.683 203.631 L 154.874 206.445 154.996 203.946 C 155.063 202.571,154.978 201.305,154.805 201.132 C 154.633 200.958,154.578 202.083,154.683 203.631 M288.009 207.713 C 290.114 207.784,293.454 207.783,295.430 207.713 C 297.407 207.642,295.684 207.584,291.602 207.585 C 287.520 207.585,285.903 207.643,288.009 207.713 M298.949 211.133 C 298.951 212.422,299.024 212.902,299.111 212.200 C 299.198 211.498,299.196 210.443,299.107 209.856 C 299.018 209.269,298.947 209.844,298.949 211.133 M243.652 214.729 C 244.136 214.822,244.927 214.822,245.410 214.729 C 245.894 214.636,245.498 214.560,244.531 214.560 C 243.564 214.560,243.169 214.636,243.652 214.729 M309.863 214.722 C 310.239 214.821,310.854 214.821,311.230 214.722 C 311.606 214.624,311.299 214.544,310.547 214.544 C 309.795 214.544,309.487 214.624,309.863 214.722 M359.673 214.729 C 360.158 214.823,360.862 214.819,361.235 214.722 C 361.608 214.624,361.211 214.547,360.352 214.552 C 359.492 214.556,359.187 214.636,359.673 214.729 " stroke="none" fill="#7c848e" fill-rule="evenodd"></path></g></svg>